HIERARCHY
ROOT root
{
	OFFSET	0	13.1	24.9
	CHANNELS 6  Xposition Yposition Zposition Xrotation Yrotation Zrotation
	JOINT spine_1
	{
		OFFSET	0	9.99999	0
		CHANNELS 3  Xrotation Yrotation Zrotation
		JOINT spine_2
		{
			OFFSET	0	112	-10
			CHANNELS 3  Xrotation Yrotation Zrotation
			JOINT spine_3
			{
				OFFSET	0	206.5	19.3
				CHANNELS 3  Xrotation Yrotation Zrotation
				JOINT spine_4
				{
					OFFSET	0	110.4	14.6
					CHANNELS 3  Xrotation Yrotation Zrotation
					JOINT neck_1
					{
						OFFSET	0	71.8	-50.3
						CHANNELS 3  Xrotation Yrotation Zrotation
						JOINT neck_2
						{
							OFFSET	0	86.2	-25.8
							CHANNELS 3  Xrotation Yrotation Zrotation
							JOINT head_ee
							{
								OFFSET	0	179.8	-8.7
								CHANNELS 3  Xrotation Yrotation Zrotation
								End Site
								{
									OFFSET	1	0	0
								}
							}
						}
					}
					JOINT left_clavicle
					{
						OFFSET	-43.2	22.4	-70.8
						CHANNELS 3  Xrotation Yrotation Zrotation
						JOINT left_shoulder
						{
							OFFSET	-93.9	-5.79999	48.7
							CHANNELS 3  Xrotation Yrotation Zrotation
							JOINT left_elbow
							{
								OFFSET	-291.4	-30.8	15.2
								CHANNELS 3  Xrotation Yrotation Zrotation
								JOINT left_lowarm_twist
								{
									OFFSET	-110.7	-3.89999	13.6
									CHANNELS 3  Xrotation Yrotation Zrotation
									JOINT left_hand
									{
										OFFSET	-110.7	-3.89999	13.6
										CHANNELS 3  Xrotation Yrotation Zrotation
										JOINT left_ee
										{
											OFFSET	-80.8	-5.10001	12.1
											CHANNELS 3  Xrotation Yrotation Zrotation
											End Site
											{
												OFFSET	1	0	0
											}
										}
									}
								}
							}
						}
					}
					JOINT right_clavicle
					{
						OFFSET	43.2	22.4	-70.8
						CHANNELS 3  Xrotation Yrotation Zrotation
						JOINT right_shoulder
						{
							OFFSET	93.9	-5.79999	48.7
							CHANNELS 3  Xrotation Yrotation Zrotation
							JOINT right_elbow
							{
								OFFSET	291.4	-30.8	15.2
								CHANNELS 3  Xrotation Yrotation Zrotation
								JOINT right_lowarm_twist
								{
									OFFSET	110.7	-3.89999	13.6
									CHANNELS 3  Xrotation Yrotation Zrotation
									JOINT right_hand
									{
										OFFSET	110.7	-3.89999	13.6
										CHANNELS 3  Xrotation Yrotation Zrotation
										JOINT right_ee
										{
											OFFSET	80.8	-5.10001	12.1
											CHANNELS 3  Xrotation Yrotation Zrotation
											End Site
											{
												OFFSET	1	0	0
											}
										}
									}
								}
							}
						}
					}
				}
			}
		}
	}
	JOINT left_hip
	{
		OFFSET	-82.8	-127.5	0.300001
		CHANNELS 3  Xrotation Yrotation Zrotation
		JOINT left_knee
		{
			OFFSET	-28.2	-396.7	2.2
			CHANNELS 3  Xrotation Yrotation Zrotation
			JOINT left_ankle
			{
				OFFSET	-11.7	-411.3	35.4
				CHANNELS 3  Xrotation Yrotation Zrotation
				JOINT left_toes
				{
					OFFSET	0	-60	-88.6
					CHANNELS 3  Xrotation Yrotation Zrotation
					JOINT left_foot_ee
					{
						OFFSET	-22.5	-16.5	-42.2
						CHANNELS 3  Xrotation Yrotation Zrotation
						End Site
						{
							OFFSET	1	0	0
						}
					}
				}
			}
		}
	}
	JOINT right_hip
	{
		OFFSET	82.8	-127.5	0.300001
		CHANNELS 3  Xrotation Yrotation Zrotation
		JOINT right_knee
		{
			OFFSET	28.2	-396.7	2.2
			CHANNELS 3  Xrotation Yrotation Zrotation
			JOINT right_ankle
			{
				OFFSET	11.7	-411.3	35.4
				CHANNELS 3  Xrotation Yrotation Zrotation
				JOINT right_toes
				{
					OFFSET	0	-60	-88.6
					CHANNELS 3  Xrotation Yrotation Zrotation
					JOINT right_foot_ee
					{
						OFFSET	22.5	-16.5	-42.2
						CHANNELS 3  Xrotation Yrotation Zrotation
						End Site
						{
							OFFSET	1	0	0
						}
					}
				}
			}
		}
	}
}
MOTION
Frames: 14
Frame Time: 0.02
1258.53591746 736.584 -1802.10479141 -6.53057160681 19.161007084 -2.306232504 5.86232 0.124192 0.653615 5.86255 0.0823503 0.660193 5.86324 0.00976425 0.665237 5.86264 0.114701 0.655347 -19.2227 6.16256 0.972639 -19.394 11.3649 3.41317 -0.0 0.0 -0.0 4.15663 22.1068 8.44963 -75.395 -61.1623 29.0807 0.409414 -11.465 0.0410995 79.4967 -3.78064 -8.58115 -1.70746 21.6048 -1.33347 -0.0 0.0 -0.0 13.0295 25.6861 -25.7818 -26.1596 10.0044 -62.6278 1.4723 36.1023 -0.479856 29.9284 -0.0685618 3.77937 -0.0391105 28.785 12.4129 0.0 0.0 0.0 30.555 25.2454 -9.05116 -48.8128 -1.12035 7.18467 42.3334 24.023 -5.35359 1.6213 -0.0 -0.0 -0.0 0.0 -0.0 18.276 9.89097 -1.60618 -14.8043 -0.321335 -2.24287 38.2378 -0.709454 4.71621 16.8269 -0.0 -0.0 0.0 0.0 0.0 
1262.41319014 736.584 -1803.42555101 -6.50432827396 18.487166799 -2.38756449295 5.86232 0.124192 0.653615 5.86255 0.0823503 0.660193 5.86324 0.00976425 0.665237 5.86264 0.114701 0.655347 -19.2227 6.16256 0.972639 -19.394 11.3649 3.41317 -0.0 0.0 -0.0 4.15663 22.1068 8.44963 -75.395 -61.1623 29.0807 0.409414 -11.465 0.0410995 79.4967 -3.78064 -8.58115 -1.70746 21.6048 -1.33347 -0.0 0.0 -0.0 13.0295 25.6861 -25.7818 -26.1596 10.0044 -62.6278 1.4723 36.1023 -0.479856 29.9284 -0.0685618 3.77937 -0.0391105 28.785 12.4129 0.0 0.0 0.0 30.555 25.2454 -9.05116 -48.8128 -1.12035 7.18467 42.3334 24.023 -5.35359 1.6213 -0.0 -0.0 -0.0 0.0 -0.0 18.276 9.89097 -1.60618 -14.8043 -0.321335 -2.24287 38.2378 -0.709454 4.71621 16.8269 -0.0 -0.0 0.0 0.0 0.0 
1238.28039424 740.388 -1812.46687215 -6.29303389462 19.858275987 -2.71979434471 5.76664 0.291659 0.516572 5.76675 0.258197 0.534083 5.76902 0.19742 0.559406 5.76869 0.283289 0.521209 -19.5537 4.98298 2.44256 -19.6309 8.34444 4.31563 -0.0 0.0 -0.0 4.13309 23.142 8.40606 -74.6794 -60.9973 31.9593 0.387262 -10.8598 0.036811 78.9328 -3.71606 -8.54847 -1.54108 21.5028 -0.408815 -0.0 0.0 -0.0 13.0865 25.3427 -25.953 -24.0294 9.77578 -61.9875 1.49453 36.5119 -0.493021 28.8728 -0.0998147 3.64816 -1.03004 28.6636 18.8617 0.0 0.0 0.0 33.4289 27.9657 -8.77925 -45.6778 -0.866908 6.7741 39.1906 25.574 -5.10812 -0.331076 0.0 0.0 -0.0 0.0 -0.0 15.2938 6.92672 -1.15969 -10.0944 -0.282201 -1.52146 37.8789 0.507857 4.6927 16.311 -0.0 -0.0 0.0 0.0 0.0 
1198.2496771 739.752 -1810.31494548 -8.34477753704 23.9521096327 -2.04957586264 5.82813 0.235089 0.313828 5.82816 0.214643 0.328152 5.82935 0.177321 0.349732 5.82925 0.230329 0.317339 -16.8985 3.74922 2.58142 -16.914 5.74959 3.77978 -0.0 0.0 -0.0 4.5288 22.4969 8.97508 -71.5686 -61.2096 38.6506 0.374401 -10.5073 0.0344268 78.849 -3.70649 -8.54356 -1.71733 24.5687 -0.00089033 -0.0 0.0 -0.0 13.0423 25.7008 -25.8099 -19.8124 8.14886 -59.6228 1.60559 38.4946 -0.560646 30.0723 -0.0641149 3.79721 -2.37166 27.9426 27.7952 0.0 0.0 0.0 33.7307 32.641 -6.36454 -38.0791 -0.349104 5.72748 38.1785 25.3593 -5.00077 -2.19361 0.0 0.0 -0.0 0.0 -0.0 15.2552 -1.95843 0.327305 -6.02486 -0.20076 -0.90242 38.5059 3.54308 4.78058 14.2106 -0.0 -0.0 0.0 0.0 0.0 
1183.33670659 736.58 -1807.22103641 -9.36043207999 25.8727757717 -1.17171351715 5.96748 0.317909 0.187921 5.96745 0.305307 0.20777 5.96858 0.281235 0.239348 5.96864 0.315506 0.191929 -16.2386 4.08928 1.81419 -16.2748 6.80316 3.14484 -0.0 0.0 -0.0 4.55633 22.4531 9.01523 -70.4297 -61.403 40.8913 0.34287 -9.63976 0.0289115 78.5189 -3.66887 -8.52409 -2.19194 23.7398 -3.09966 -0.0 0.0 -0.0 12.2885 27.1494 -23.9046 -20.8338 9.02649 -58.4331 1.82969 42.1843 -0.705784 27.9085 -0.126246 3.52782 -2.27907 27.0968 26.8498 0.0 0.0 0.0 35.7466 36.5288 -6.80394 -32.2016 -0.0465396 4.87713 37.0886 26.4194 -4.92419 -3.24985 0.0 0.0 -0.0 0.0 -0.0 16.3742 0.309284 1.32582 -7.06844 -0.225835 -1.0606 38.6466 5.03296 4.81367 12.2888 -0.0 -0.0 0.0 0.0 0.0 
1161.98649188 734.908 -1810.4064635 -8.8657513139 27.798307189 -1.29122013612 5.72589 0.449083 0.0971834 5.72579 0.441989 0.125563 5.72685 0.425222 0.174088 5.72709 0.44738 0.104746 -16.1657 1.83582 3.17549 -16.1397 1.69597 3.62615 -0.0 0.0 -0.0 4.52498 20.756 9.00126 -69.3249 -61.66 44.7585 0.35213 -9.89503 0.0304825 79.2431 -3.75155 -8.56653 -1.66256 22.1534 -0.815144 -0.0 0.0 -0.0 12.795 27.0902 -25.0726 -14.5595 7.19886 -58.1695 1.71901 40.4124 -0.632723 26.0808 -0.170768 3.29859 -3.12939 27.0689 33.0072 0.0 0.0 0.0 34.6343 38.6271 -5.79656 -17.7553 0.315603 2.69555 27.7078 26.615 -3.87603 -7.43785 0.0 0.0 -0.0 0.0 -0.0 13.7639 -0.893247 1.62712 -3.38672 -0.124552 -0.504757 39.0791 2.91491 4.82369 11.9054 -0.0 -0.0 0.0 0.0 0.0 
1137.90530627 729.483 -1812.69801339 -9.69893802941 30.0663923783 -0.50000963139 5.93915 0.488705 0.0713938 5.93903 0.483172 0.102347 5.94002 0.469314 0.153867 5.94032 0.487724 0.0778148 -16.7147 2.56266 1.16145 -16.7296 4.2629 2.01153 -0.0 0.0 -0.0 3.65435 21.9319 7.73126 -66.3572 -61.4929 47.8055 0.325584 -9.16222 0.0260879 82.1506 -4.08871 -8.72632 -2.00907 24.0706 -1.89341 -0.0 0.0 -0.0 13.0185 26.927 -25.6076 -11.1016 5.35483 -56.6737 1.71169 40.2919 -0.627989 23.1799 -0.226351 2.93224 -3.29776 27.4932 34.4051 0.0 0.0 0.0 35.9379 40.128 -5.91946 -17.6866 0.316002 2.68501 35.2235 26.1837 -4.72079 -10.4702 0.0 0.0 -0.0 0.0 -0.0 14.0068 -2.62206 2.55089 -5.11551 -0.176562 -0.764965 40.1339 2.01276 4.90522 11.6567 -0.0 -0.0 0.0 0.0 0.0 
1123.76555322 726.656 -1808.18262626 -10.0038039881 32.5716360684 -0.189820735935 5.83047 0.488342 0.0882942 5.83034 0.481734 0.11919 5.83147 0.465744 0.171339 5.83176 0.486958 0.0956312 -16.2723 3.327 0.486046 -16.3088 6.1024 1.63094 -0.0 0.0 -0.0 3.55823 20.2182 7.57558 -61.7565 -61.3665 52.1069 0.279168 -7.87377 0.0192124 82.7083 -4.15428 -8.755 -2.0913 24.113 -2.34051 -0.0 0.0 -0.0 12.7005 27.7812 -24.7681 -10.354 4.95063 -56.8317 1.94993 44.0026 -0.787938 22.8646 -0.231273 2.89227 -3.40233 27.5542 35.2155 0.0 0.0 0.0 36.989 35.4408 -4.8838 -16.5775 0.320687 2.51491 36.293 26.2304 -4.83534 -11.1539 0.0 0.0 -0.0 0.0 -0.0 13.5337 -3.75078 3.11976 -3.81485 -0.138164 -0.569053 40.324 -0.703452 4.89889 12.5642 -0.0 -0.0 0.0 0.0 0.0 
1112.16715396 724.697 -1813.80688583 -10.3059881894 33.0434989083 0.357732773223 6.04539 0.512242 0.0738302 6.04525 0.506506 0.106277 6.04633 0.492384 0.159376 6.04666 0.511375 0.0796114 -15.924 2.89539 0.672939 -15.9481 5.1597 1.63694 -0.0 0.0 -0.0 2.70199 20.189 6.3121 -59.235 -61.2276 54.7933 0.318258 -8.95947 0.0249342 82.4229 -4.1207 -8.74041 -2.71936 25.1889 -5.34711 -0.0 0.0 -0.0 12.5265 27.6481 -24.3867 -10.323 5.16516 -57.3749 1.98577 44.5241 -0.812956 21.796 -0.246316 2.7566 -3.00157 27.7278 32.2725 0.0 0.0 0.0 37.5097 42.2062 -5.15808 -9.68507 0.276002 1.45896 36.9238 20.4914 -4.74503 -15.9823 0.0 0.0 -0.0 0.0 -0.0 13.0189 -4.25006 3.15668 -4.12181 -0.147627 -0.61521 40.6177 -2.03638 4.91686 9.82806 -0.0 -0.0 0.0 0.0 0.0 
1107.29197521 724.697 -1810.00853212 -10.4045121245 33.8596052859 0.536462308121 6.04539 0.512242 0.0738302 6.04525 0.506506 0.106277 6.04633 0.492384 0.159376 6.04666 0.511375 0.0796114 -15.924 2.89539 0.672939 -15.9481 5.1597 1.63694 -0.0 0.0 -0.0 2.70199 20.189 6.3121 -59.235 -61.2276 54.7933 0.318258 -8.95947 0.0249342 82.4229 -4.1207 -8.74041 -2.71936 25.1889 -5.34711 -0.0 0.0 -0.0 12.5265 27.6481 -24.3867 -10.323 5.16516 -57.3749 1.98577 44.5241 -0.812956 21.796 -0.246316 2.7566 -3.00157 27.7278 32.2725 0.0 0.0 0.0 37.5097 42.2062 -5.15808 -9.68507 0.276002 1.45896 36.9238 20.4914 -4.74503 -15.9823 0.0 0.0 -0.0 0.0 -0.0 13.0189 -4.25006 3.15668 -4.12181 -0.147627 -0.61521 40.6177 -2.03638 4.91686 9.82806 -0.0 -0.0 0.0 0.0 0.0 
1079.18741651 714.374 -1852.26091496 -11.9243583899 36.6400141785 3.61002467047 6.12241 0.248664 0.177244 6.1224 0.236881 0.192708 6.1232 0.215406 0.216448 6.12322 0.246886 0.179712 -14.4762 4.486 -4.54832 -14.5212 11.3072 -2.85978 -0.0 0.0 -0.0 -0.283039 14.6569 1.26979 -35.9926 -57.042 72.5574 0.231785 -6.55015 0.0132636 85.2305 -4.45415 -8.87671 -4.16331 26.7321 -12.6072 -0.0 0.0 -0.0 12.5282 22.5495 -24.945 -7.32053 6.55935 -56.2651 1.82256 42.073 -0.700998 16.7674 -0.283038 2.11556 -2.17682 26.2604 25.8335 0.0 0.0 0.0 42.5034 44.2899 -6.34369 -0.2478 0.0101241 0.0366798 24.7184 16.1177 -3.34303 -40.1145 0.0 0.0 -0.0 0.0 -0.0 12.0729 -8.92009 2.10703 -9.82165 -0.27812 -1.47981 41.5477 -12.88 5.03908 12.2482 -0.0 -0.0 0.0 0.0 0.0 
1064.81701771 708.891 -1865.03443882 -11.1101514654 36.9531388736 3.69164778241 5.88152 0.124465 0.121978 5.88153 0.116451 0.129651 5.88179 0.101642 0.141559 5.88178 0.122723 0.12373 -13.661 4.71059 -2.38412 -13.7229 10.4453 -0.80832 -0.0 0.0 -0.0 -1.01084 14.8993 0.131451 -33.4751 -53.9805 74.0346 0.287442 -8.10407 0.0203623 85.1626 -4.446 -8.8736 -4.37425 23.6459 -15.8701 -0.0 0.0 -0.0 12.9268 23.3129 -25.7961 -6.73997 7.17466 -55.7564 1.79799 41.6867 -0.684597 26.262 -0.166681 3.32138 -1.8416 27.4143 23.9044 0.0 0.0 0.0 41.967 46.5786 -5.44174 -0.645779 0.0260515 0.0956777 18.7977 17.8458 -2.62539 -40.1181 0.0 0.0 -0.0 0.0 -0.0 10.8611 -5.28914 1.64625 -13.2168 -0.314773 -1.9994 41.7668 -15.605 5.09784 14.4949 -0.0 -0.0 0.0 0.0 0.0 
1052.65757262 702.536 -1876.80602833 -10.7358636268 36.6221965727 3.05234374867 5.88978 0.273341 0.566553 5.88993 0.236736 0.582797 5.89215 0.171993 0.605074 5.89174 0.265393 0.570319 -12.4111 4.09117 -4.34366 -12.4194 10.5327 -2.98732 -0.0 0.0 -0.0 -1.99555 13.9378 -1.61203 -32.7388 -50.1931 74.1412 0.376705 -10.5705 0.0348483 85.2147 -4.45225 -8.87598 -4.69727 23.262 -18.0881 -0.0 0.0 -0.0 13.6118 24.4937 -27.2696 -6.79825 6.50993 -54.8401 1.53359 37.2213 -0.516455 19.3207 -0.271425 2.44144 -1.01997 28.501 18.7336 0.0 0.0 0.0 40.9202 46.3499 -5.23822 -0.358509 0.0145962 0.0530806 13.1929 18.6181 -1.88791 -32.6726 0.0 0.0 -0.0 0.0 -0.0 10.178 -6.72375 2.19585 -14.5279 -0.320678 -2.20046 41.9415 -16.6941 5.1324 15.7375 -0.0 -0.0 0.0 0.0 0.0 
1045.67857787 702.536 -1871.15503967 -10.8781390168 37.6071628335 3.28811952383 5.88978 0.273341 0.566553 5.88993 0.236736 0.582797 5.89215 0.171993 0.605074 5.89174 0.265393 0.570319 -12.4111 4.09117 -4.34366 -12.4194 10.5327 -2.98732 -0.0 0.0 -0.0 -1.99555 13.9378 -1.61203 -32.7388 -50.1931 74.1412 0.376705 -10.5705 0.0348483 85.2147 -4.45225 -8.87598 -4.69727 23.262 -18.0881 -0.0 0.0 -0.0 13.6118 24.4937 -27.2696 -6.79825 6.50993 -54.8401 1.53359 37.2213 -0.516455 19.3207 -0.271425 2.44144 -1.01997 28.501 18.7336 0.0 0.0 0.0 40.9202 46.3499 -5.23822 -0.358509 0.0145962 0.0530806 13.1929 18.6181 -1.88791 -32.6726 0.0 0.0 -0.0 0.0 -0.0 10.178 -6.72375 2.19585 -14.5279 -0.320678 -2.20046 41.9415 -16.6941 5.1324 15.7375 -0.0 -0.0 0.0 0.0 0.0 
